Coordinates
version=1
nRows=10
nColumns=46
inDegrees=yes

Units are S.I. units (second, meters, Newtons, ...)
Angles are in degrees.

endheader
time	pelvis_tilt	pelvis_list	pelvis_rotation	pelvis_tx	pelvis_ty	pelvis_tz	bb_angle	bb_tx	bb_ty	bb_tz	hip_flexion_r	hip_adduction_r	hip_rotation_r	knee_angle_r	knee_angle_r_beta	ankle_angle_r	subtalar_angle_r	mtp_angle_r	crank_angle_r	hip_flexion_l	hip_adduction_l	hip_rotation_l	knee_angle_l	knee_angle_l_beta	ankle_angle_l	subtalar_angle_l	mtp_angle_l	crank_angle_l	lumbar_extension	lumbar_bending	lumbar_rotation	arm_flex_r	arm_add_r	arm_rot_r	elbow_flex_r	pro_sup_r	wrist_flex_r	wrist_dev_r	arm_flex_l	arm_add_l	arm_rot_l	elbow_flex_l	pro_sup_l	wrist_flex_l	wrist_dev_l
      2.50000000	     -2.29249395	     -6.93028337	     -0.18829488	      0.05688827	      1.18148270	     -0.26303327	      0.00000000	      0.50000000	      0.00000000	      0.25000000	     74.73908246	      2.52313673	      3.21251152	    109.73876309	      1.91530273	    -10.41826441	     -6.14861580	      0.00000000	      0.00000000	     23.84777965	    -11.77932200	     -8.20620835	     26.67326640	      0.46553632	     -3.93676655	     12.87044904	      0.00000000	      0.00000000	    -64.79086090	      7.66813790	      4.18324367	     89.62650547	     -6.22058013	     45.24166398	     35.40990204	     37.63811558	      0.00000000	      0.00000000	     87.55729703	    -18.47048842	     56.21818721	     35.52812639	     31.74566587	      0.00000000	      0.00000000
      2.50500000	     -2.42126721	     -7.27065041	     -0.49994551	      0.05666142	      1.18223769	     -0.26382233	      0.00000000	      0.50000000	      0.00000000	      0.25000000	     75.38256968	      2.88240101	      3.05731895	    109.41126166	      1.90958675	     -9.93942865	     -5.94408625	      0.00000000	      0.00000000	     23.67107416	    -12.07382419	     -7.98014406	     27.07888922	      0.47261577	     -4.20100919	     11.82372024	      0.00000000	      0.00000000	    -64.80476971	      8.05385032	      4.23660568	     89.64586235	     -5.13405441	     44.41647073	     35.21349169	     36.47300933	      0.00000000	      0.00000000	     87.31593814	    -19.43131297	     55.91763869	     35.96434000	     32.36163596	      0.00000000	      0.00000000
      2.51000000	     -2.64166885	     -7.53041454	     -0.74438183	      0.05607010	      1.18288594	     -0.26470774	      0.00000000	      0.50000000	      0.00000000	      0.25000000	     76.04989182	      3.15598609	      3.00188825	    108.96184240	      1.90174291	     -9.40419715	     -5.59266229	      0.00000000	      0.00000000	     23.83064093	    -12.14877904	     -7.15141054	     28.02431348	      0.48911654	     -4.29472450	      8.37827606	      0.00000000	      0.00000000	    -64.72919846	      8.43271722	      4.40015316	     89.66653580	     -4.65581293	     44.16716153	     35.44014613	     36.06951617	      0.00000000	      0.00000000	     87.22251035	    -19.96786897	     55.68701705	     35.98683351	     32.55768146	      0.00000000	      0.00000000
      2.51500000	     -2.84136840	     -7.86312500	     -1.03250035	      0.05541033	      1.18351292	     -0.26528029	      0.00000000	      0.50000000	      0.00000000	      0.25000000	     76.60798498	      3.55410993	      2.85249620	    108.42503025	      1.89237377	     -8.76419071	     -5.40464199	      0.00000000	      0.00000000	     24.04594295	    -12.39133172	     -6.53887328	     28.91777166	      0.50471033	     -4.53908657	      6.93169400	      0.00000000	      0.00000000	    -64.72291484	      8.78421090	      4.54048142	     89.68663102	     -3.95315204	     43.66814724	     35.61126469	     35.49586471	      0.00000000	      0.00000000	     87.12114821	    -20.78223850	     55.43226629	     36.37476566	     32.87476811	      0.00000000	      0.00000000
      2.52000000	     -2.99332644	     -8.12974170	     -1.37348267	      0.05465119	      1.18423074	     -0.26563325	      0.00000000	      0.50000000	      0.00000000	      0.25000000	     77.02755473	      3.98913957	      2.78713992	    107.75884310	      1.88074661	     -8.12594779	     -5.35323715	      0.00000000	      0.00000000	     24.32527943	    -12.58899621	     -5.95265216	     30.03693990	      0.52424350	     -4.81186050	      5.37009105	      0.00000000	      0.00000000	    -64.81443524	      9.06191561	      4.54171854	     89.70223632	     -2.96607400	     42.82938478	     35.73386199	     34.39790038	      0.00000000	      0.00000000	     86.99086502	    -21.84543745	     54.87693064	     37.09076934	     33.44018898	      0.00000000	      0.00000000
      2.52500000	     -3.12901591	     -8.48888050	     -1.77052870	      0.05382854	      1.18488367	     -0.26569193	      0.00000000	      0.50000000	      0.00000000	      0.25000000	     77.34927867	      4.51609390	      2.64627158	    106.95295972	      1.86668129	     -7.27596253	     -4.83317444	      0.00000000	      0.00000000	     24.75227911	    -12.95153948	     -5.36376668	     31.46895044	      0.54923680	     -5.09916646	      3.96217188	      0.00000000	      0.00000000	    -64.92249404	      9.26949293	      4.83210311	     89.72100471	     -2.45340995	     42.58649488	     36.04171524	     34.06778631	      0.00000000	      0.00000000	     86.99661104	    -22.45113522	     54.65149066	     37.20887069	     33.60241598	      0.00000000	      0.00000000
      2.53000000	     -3.31828472	     -8.78874880	     -2.09562205	      0.05278901	      1.18531755	     -0.26573883	      0.00000000	      0.50000000	      0.00000000	      0.25000000	     77.64855316	      4.98354421	      2.50685345	    106.07738904	      1.85139970	     -6.57858784	     -4.68234037	      0.00000000	      0.00000000	     25.40169161	    -13.16762584	     -4.52861961	     33.11179246	      0.57790980	     -5.42354730	      2.28466601	      0.00000000	      0.00000000	    -65.00197905	      9.42000130	      5.04013428	     89.73487624	     -1.98520710	     42.16929843	     36.37277983	     33.64822205	      0.00000000	      0.00000000	     87.04359933	    -23.08122634	     54.39918294	     37.61384691	     33.84297668	      0.00000000	      0.00000000
      2.53500000	     -3.38617340	     -9.08456356	     -2.57277309	      0.05173910	      1.18595967	     -0.26548401	      0.00000000	      0.50000000	      0.00000000	      0.25000000	     77.68165209	      5.62807901	      2.42035421	    105.03792973	      1.83325771	     -5.86877665	     -4.67330968	      0.00000000	      0.00000000	     25.98111213	    -13.48170995	     -3.92136110	     34.93893334	      0.60979942	     -5.76386604	      0.68177547	      0.00000000	      0.00000000	    -65.21525473	      9.45222040	      5.27420059	     89.74933868	     -1.46645840	     41.93715181	     36.70192622	     33.42220803	      0.00000000	      0.00000000	     87.12137838	    -23.73415617	     54.18344345	     37.83103746	     33.97002296	      0.00000000	      0.00000000
      2.54000000	     -3.53752831	     -9.25156863	     -2.90044460	      0.05048338	      1.18611965	     -0.26547992	      0.00000000	      0.50000000	      0.00000000	      0.25000000	     77.75216058	      6.00978923	      2.39674872	    103.97815298	      1.81476112	     -4.96759501	     -4.32745818	      0.00000000	      0.00000000	     26.86730763	    -13.53956722	     -3.09947068	     37.01082172	      0.64596070	     -6.28547984	     -1.11171596	      0.00000000	      0.00000000	    -65.43162124	      9.60249086	      4.83464828	     89.76060397	     -0.08104013	     40.90512302	     37.10017501	     31.29419821	      0.00000000	      0.00000000	     87.03919385	    -25.68269235	     53.53782084	     39.68822612	     35.94794044	      0.00000000	      0.00000000
      2.54500000	     -3.60479003	     -9.46866170	     -3.32513720	      0.04923766	      1.18648159	     -0.26531554	      0.00000000	      0.50000000	      0.00000000	      0.25000000	     77.56666706	      6.56861021	      2.40468931	    102.79192949	      1.79405761	     -3.83038531	     -4.13068335	      0.00000000	      0.00000000	     27.64399058	    -13.67231940	     -2.32984180	     39.07365557	      0.68196394	     -6.81923767	     -2.82948602	      0.00000000	      0.00000000	    -65.68964487	      9.60654734	      4.95984683	     89.77365915	      0.37534224	     40.77450770	     37.88586098	     29.50282411	      0.00000000	      0.00000000	     87.14018612	    -26.45299759	     53.16518194	     39.87956635	     37.65579502	      0.00000000	      0.00000000
